HIERARCHY
ROOT hip
{
	OFFSET 0.000000 0.000000 0.000000 
	CHANNELS 6 Xposition Yposition Zposition Xrotation Zrotation Yrotation
	JOINT abdomen
	{
		OFFSET 0.000000 3.402643 0.000000 
		CHANNELS 3 Xrotation Zrotation Yrotation
		JOINT chest
		{
			OFFSET 0.000000 8.438565 -0.680529 
			CHANNELS 3 Xrotation Zrotation Yrotation
			JOINT neck
			{
				OFFSET 0.000000 10.207942 -0.272212 
				CHANNELS 3 Xrotation Zrotation Yrotation
				JOINT head
				{
					OFFSET 0.000000 3.130431 0.000000 
					CHANNELS 3 Xrotation Zrotation Yrotation
					End Site
					{
						OFFSET 0.000000 3.130435 0.000000 
					}
				}
			}
			JOINT lCollar
			{
				OFFSET 3.470700 6.669187 -0.816635 
				CHANNELS 3 Yrotation Zrotation Xrotation
				JOINT lShldr
				{
					OFFSET 3.198488 0.000000 0.000000 
					CHANNELS 3 Zrotation Yrotation Xrotation
					JOINT lForeArm
					{
						OFFSET 10.139888 0.000000 0.000000 
						CHANNELS 3 Yrotation Zrotation Xrotation
						JOINT lHand
						{
							OFFSET 8.370511 0.000000 0.000000 
							CHANNELS 3 Zrotation Yrotation Xrotation
							End Site
							{
								OFFSET 4.083176 0.000000 0.000000 
							}
						}
					}
				}
			}
			JOINT rCollar
			{
				OFFSET -3.470700 6.669187 -0.816635 
				CHANNELS 3 Yrotation Zrotation Xrotation
				JOINT rShldr
				{
					OFFSET -3.198488 0.000000 0.000000 
					CHANNELS 3 Zrotation Yrotation Xrotation
					JOINT rForeArm
					{
						OFFSET -10.139888 0.000000 0.000000 
						CHANNELS 3 Yrotation Zrotation Xrotation
						JOINT rHand
						{
							OFFSET -8.370511 0.000000 0.000000 
							CHANNELS 3 Zrotation Yrotation Xrotation
							End Site
							{
								OFFSET -4.083176 0.000000 0.000000 
							}
						}
					}
				}
			}
		}
	}
	JOINT lThigh
	{
		OFFSET 5.308129 -1.633274 1.361059 
		CHANNELS 3 Xrotation Zrotation Yrotation
		JOINT lShin
		{
			OFFSET -2.041588 -20.007561 0.000000 
			CHANNELS 3 Xrotation Zrotation Yrotation
			JOINT lFoot
			{
				OFFSET 0.000000 -19.190928 -1.224953 
				CHANNELS 3 Xrotation Yrotation Zrotation
				End Site
				{
					OFFSET 0.000000 -2.449906 4.627600 
				}
			}
		}
	}
	JOINT rThigh
	{
		OFFSET -5.308129 -1.633274 1.361059 
		CHANNELS 3 Xrotation Zrotation Yrotation
		JOINT rShin
		{
			OFFSET 2.041588 -20.007561 0.000000 
			CHANNELS 3 Xrotation Zrotation Yrotation
			JOINT rFoot
			{
				OFFSET 0.000000 -19.190928 -1.224953 
				CHANNELS 3 Xrotation Yrotation Zrotation
				End Site
				{
					OFFSET 0.000000 -2.449906 4.627600 
				}
			}
		}
	}
}
MOTION
Frames: 14
Frame Time: 0.033333
15.537288 42.161282 61.756744 -5.881530 24.699455 49.059738 38.362183 -7.537922 -9.138288 -20.839844 -0.007467 -0.001337 -32.138638 -1.230397 -44.032917 -5.806170 -1.925131 0.391980 -6.249050 -0.109138 -0.001707 -0.130144 -2.912026 -48.982342 -119.971451 24.340755 2.099703 2.007474 15.227737 -18.604471 3.250129 0.108978 -0.003601 54.373325 12.060223 -17.536093 65.018387 -2.770752 -10.299848 -2.930919 -17.151066 -11.951102 21.964655 -9.317026 -29.098112 24.289253 4.104117 1.421343 -19.382328 38.083153 -8.222337 -5.477678 -24.510477 7.207255 28.284216 -11.465174 18.307121 -2.245112 -10.324914 2.022384 
15.812430 42.254459 62.084972 -5.961563 27.149035 57.147018 40.740334 -5.531945 -17.791477 -20.839844 -0.007467 -0.001337 -30.233166 -11.651931 -44.662884 -5.806170 -1.925131 0.391980 -6.249050 -0.109138 -0.001707 -3.161093 -9.328628 -45.961742 -121.816887 19.804222 11.580758 14.095317 15.146068 -0.433402 3.250129 0.108978 -0.003601 56.440407 4.100056 -20.474594 72.260017 -5.712053 -8.400749 -2.069490 -15.209849 -8.838766 22.273602 -2.803226 -18.931293 25.773014 0.327531 -2.132568 -22.587273 24.185326 -6.925073 2.587864 -22.963863 6.278898 29.941053 -12.413337 12.848390 -3.453113 -18.000334 -1.054118 
16.182013 42.448681 62.690113 -5.329090 30.087540 67.267456 41.881462 -2.329586 -25.385559 -20.839844 -0.007467 -0.001337 -28.666100 -22.883799 -38.448624 -5.806170 -1.925131 0.391980 -6.249050 -0.109138 -0.001707 -4.903142 -13.921362 -41.360294 -112.021072 15.131485 13.959833 20.649485 14.079947 12.975573 3.250129 0.108978 -0.003601 56.908539 -4.337329 -25.038515 82.702705 -10.128953 -4.191472 0.119032 -12.267198 -3.950998 24.451624 2.831325 -12.535418 25.692524 0.768175 -7.087891 -24.281809 14.564021 -7.563766 12.859604 -21.119379 4.861083 28.706333 -11.733349 9.100110 -3.644523 -23.457283 -1.300680 
16.600121 42.761715 63.406246 -4.562308 32.476173 74.022141 40.777668 -0.565322 -28.932518 -20.839844 -0.007467 -0.001337 -30.765446 -28.353306 -20.801401 -5.806170 -1.925131 0.391980 -6.249050 -0.109138 -0.001707 -4.596257 -17.358488 -37.796429 -94.784744 10.079165 12.604358 18.075827 12.856825 18.537725 3.250129 0.108978 -0.003601 56.142841 -11.778952 -30.180368 96.465446 -15.014694 2.386477 4.154403 -8.628879 0.899392 27.531881 5.202132 -11.450317 23.816568 3.219025 -10.447654 -26.849455 12.357277 -8.320195 21.508476 -18.763500 5.266653 25.411909 -10.949026 7.297425 -3.672966 -27.956724 -0.853095 
17.064821 43.042828 64.215561 -3.797977 34.091892 75.627922 38.618324 -1.647381 -28.275364 -20.839844 -0.007467 -0.001337 -34.723320 -22.776785 5.385283 -5.806170 -1.925131 0.391980 -6.249050 -0.109138 -0.001707 -1.615475 -20.892626 -35.349922 -73.781204 3.685630 12.768628 13.274598 9.926296 20.835001 3.250129 0.108978 -0.003601 53.583885 -17.344048 -34.860279 110.630608 -18.575258 10.386909 7.293267 -3.800397 5.060145 32.281624 3.953718 -13.629989 18.561649 7.835681 -10.957011 -22.156912 15.954183 -18.550779 26.830593 -17.846985 3.304414 21.851130 -12.659578 7.610126 -5.059922 -25.772051 -0.225098 
17.472668 43.249081 65.111244 -3.247663 34.810341 72.610710 36.457878 -5.715519 -24.251375 -20.839844 -0.007467 -0.001337 -33.593395 -9.113256 29.946100 -5.806170 -1.925131 0.391980 -6.249050 -0.109138 -0.001707 2.970795 -24.761627 -34.244541 -52.726765 -1.379009 18.394478 7.764884 5.224466 25.014137 3.250129 0.108978 -0.003601 50.037277 -18.830650 -38.917721 122.465179 -21.369202 17.660894 8.801699 0.351502 6.765282 39.890236 2.372085 -16.256058 6.434099 10.388752 -8.741669 -11.129799 20.833275 -29.383812 27.847902 -18.872934 2.214361 21.327599 -15.384444 11.819316 -7.717752 -20.314026 -0.133820 
17.614742 43.484123 66.146706 -2.602158 34.337696 67.020386 33.587147 -11.373350 -17.732649 -20.839844 -0.007467 -0.001337 -29.812494 3.949118 51.100861 -5.806170 -1.925131 0.391980 -6.249050 -0.109138 -0.001707 9.007577 -26.633482 -33.498470 -36.199158 -4.309073 25.978603 4.041568 1.110792 28.150318 3.250129 0.108978 -0.003601 44.262360 -15.938556 -42.624237 131.221939 -23.744764 23.283842 9.294876 2.784036 5.659914 45.171658 0.965014 -19.817179 -4.476605 10.810951 -6.163792 1.991715 24.160875 -35.393967 25.356379 -20.579674 6.130629 24.304190 -17.550949 17.458069 -8.432502 -19.889875 -0.687961 
17.496540 43.611855 67.252312 -1.140554 32.953800 63.416939 30.201014 -16.079361 -11.157633 -20.839844 -0.007467 -0.001337 -26.908754 11.122732 67.347069 -5.806170 -1.925131 0.391980 -6.249050 -0.109138 -0.001707 14.242927 -29.597822 -33.243793 -23.050655 -4.657084 32.623791 3.162951 -1.498681 28.731419 3.250129 0.108978 -0.003601 36.604713 -10.851254 -46.691536 137.720657 -25.756042 26.980146 10.474504 2.481021 1.780447 40.849384 -1.787263 -26.229391 2.171095 11.747539 -7.476269 4.769425 30.273048 -40.299759 22.564505 -21.672989 9.381846 27.829676 -18.587843 19.143404 -7.328766 -21.991528 1.497551 
17.227940 43.529671 68.324928 -0.356077 31.767084 65.000458 28.964895 -17.367369 -7.448109 -20.839844 -0.007467 -0.001337 -24.080851 12.300028 75.734482 -5.806170 -1.925131 0.391980 -6.249050 -0.109138 -0.001707 15.402845 -32.352016 -31.606421 -15.455529 -4.455823 37.792843 4.490294 -1.881209 28.415079 3.250129 0.108978 -0.003601 28.575792 -4.328031 -50.556904 142.319611 -26.736738 28.372850 12.756812 0.033630 -3.721545 38.181831 1.132064 -24.345671 2.942619 10.639403 -12.712932 4.778947 26.899473 -41.020889 24.311924 -20.199181 9.640716 27.696886 -17.901039 16.499693 -9.640943 -25.354445 4.953725 
16.843019 43.367920 69.362480 0.137047 31.230398 70.925560 30.042580 -16.540640 -7.344361 -20.839844 -0.007467 -0.001337 -20.966192 11.772376 77.465645 -5.806170 -1.925131 0.391980 -6.249050 -0.109138 -0.001707 13.212817 -35.403793 -30.952433 -10.613000 -2.576335 39.412693 3.930362 -1.970208 29.159344 3.250129 0.108978 -0.003601 22.508238 1.416132 -52.603264 144.428299 -26.130198 27.659374 12.160936 -1.807112 -7.499590 36.304489 8.288528 -17.095352 0.452341 5.665376 -18.776077 4.738914 19.000187 -34.435341 30.611460 -16.246563 7.628450 21.856186 -17.439163 11.803341 -16.564188 -27.166197 3.288286 
16.329899 43.421310 70.593201 2.837845 31.023624 78.545601 31.858185 -18.448509 -8.944809 -20.839844 -0.007467 -0.001337 -18.997053 11.483494 75.801369 -5.806170 -1.925131 0.391980 -6.249050 -0.109138 -0.001707 9.429353 -38.914654 -29.448153 -6.837535 0.623429 40.004780 3.782815 -1.952338 28.748503 3.250129 0.108978 -0.003601 18.775469 4.880277 -53.429440 145.275162 -25.146486 26.653402 9.717040 -3.082341 -9.251358 34.838722 14.059679 -11.056878 -3.400820 -0.925617 -21.603125 6.433682 14.015901 -24.921457 35.666382 -14.449240 1.515653 15.442704 -16.600554 8.302832 -17.531042 -21.569767 7.672615 
15.795210 43.304573 71.641739 4.719357 29.857321 87.025055 34.012123 -18.031055 -10.419131 -20.839844 -0.007467 -0.001337 -18.089437 11.239262 73.184402 -5.806170 -1.925131 0.391980 -6.249050 -0.109138 -0.001707 4.310677 -41.210468 -27.810375 -5.331974 2.556887 39.984585 6.060820 -2.140578 29.974094 3.250129 0.108978 -0.003601 16.432930 5.928780 -53.608067 145.313660 -24.412207 25.599361 6.939118 -3.665481 -10.004350 31.418713 19.525541 -5.639834 -4.285600 -6.462831 -22.504318 7.266354 12.167009 -21.301275 34.758213 -12.068322 -2.076768 18.850903 -12.291666 2.653526 -20.016335 -16.619684 6.891782 
15.256961 43.151714 72.375145 4.079758 28.805767 95.641319 35.980499 -13.084013 -10.594526 -20.839844 -0.007467 -0.001337 -16.792065 10.580625 70.363441 -5.806170 -1.925131 0.391980 -6.249050 -0.109138 -0.001707 -3.091379 -40.975662 -25.175209 -7.664899 2.507931 37.134296 8.031560 -2.032200 29.473291 3.250129 0.108978 -0.003601 14.961082 4.659979 -53.061348 144.794907 -23.688051 24.033024 2.677822 -4.183455 -10.674656 19.492071 21.073013 -4.045811 11.722769 -2.023182 -21.682882 1.551530 8.520718 -22.860455 33.796120 -9.901908 -5.916984 21.846424 -3.086718 -2.848825 -22.193455 -11.430901 3.617762 
14.808489 42.936558 72.887642 2.724277 28.127350 102.759834 36.723022 -7.076123 -9.027574 -20.839844 -0.007467 -0.001337 -14.480890 10.426347 67.658150 -5.806170 -1.925131 0.391980 -6.249050 -0.109138 -0.001707 -11.597156 -38.687851 -21.495134 -11.840639 2.167446 32.924725 8.641730 -2.401699 26.597427 3.250129 0.108978 -0.003601 13.197875 1.761919 -51.433170 142.828033 -22.631495 21.350100 -5.652831 -4.019195 -10.544143 9.742303 21.963739 1.801862 24.170593 3.883267 -18.464685 0.214227 -2.375626 -19.429375 35.843864 -7.675202 -8.067957 18.277885 5.257089 -7.088436 -21.458042 -8.810495 5.191813 
